<mxfile host="app.diagrams.net" modified="2021-04-22T14:01:53.093Z" agent="5.0 (Macintosh; Intel Mac OS X 10_15_6) AppleWebKit/605.1.15 (KHTML, like Gecko) Version/14.0.3 Safari/605.1.15" etag="58wkxdA6q-lKwyzhN8Tn" version="14.5.3" type="github">
  <diagram id="SLIHQjDGCGK8rhChzqEK" name="第 1 页">
    <mxGraphModel dx="1865" dy="763" grid="1" gridSize="10" guides="1" tooltips="1" connect="1" arrows="1" fold="1" page="1" pageScale="1" pageWidth="827" pageHeight="1169" math="0" shadow="0">
      <root>
        <mxCell id="0" />
        <mxCell id="1" parent="0" />
        <mxCell id="jVuyrgpBVxqC9CXEkM5F-36" value="&lt;font style=&quot;font-size: 20px&quot;&gt;&lt;b&gt;应用程序&lt;/b&gt;&lt;/font&gt;" style="rounded=1;whiteSpace=wrap;html=1;labelBackgroundColor=none;fontSize=19;align=center;horizontal=1;verticalAlign=top;dashed=1;" vertex="1" parent="1">
          <mxGeometry x="-97.5" y="120" width="865" height="850" as="geometry" />
        </mxCell>
        <mxCell id="jVuyrgpBVxqC9CXEkM5F-33" value="&amp;nbsp; &amp;nbsp; 线程池" style="rounded=1;whiteSpace=wrap;html=1;labelBackgroundColor=none;fontSize=19;fontStyle=1;align=left;verticalAlign=top;fillColor=#fff2cc;strokeColor=none;" vertex="1" parent="1">
          <mxGeometry x="-30" y="690" width="685" height="250" as="geometry" />
        </mxCell>
        <mxCell id="jVuyrgpBVxqC9CXEkM5F-29" value="子线程 &amp;nbsp;1" style="rounded=1;whiteSpace=wrap;html=1;labelBackgroundColor=none;fontSize=16;verticalAlign=top;fillColor=#f5f5f5;fontColor=#333333;strokeColor=none;" vertex="1" parent="1">
          <mxGeometry x="25" y="730" width="260" height="185" as="geometry" />
        </mxCell>
        <mxCell id="jVuyrgpBVxqC9CXEkM5F-1" value="&lt;span style=&quot;font-size: 20px&quot;&gt;&lt;b&gt;&lt;br&gt;&amp;nbsp; &amp;nbsp; &amp;nbsp; &amp;nbsp;主线程&lt;/b&gt;&lt;/span&gt;" style="rounded=1;whiteSpace=wrap;html=1;fontSize=16;align=left;verticalAlign=top;fillColor=#f9f7ed;strokeColor=none;" vertex="1" parent="1">
          <mxGeometry x="-50" y="190" width="790" height="460" as="geometry" />
        </mxCell>
        <mxCell id="jVuyrgpBVxqC9CXEkM5F-34" style="edgeStyle=none;rounded=0;orthogonalLoop=1;jettySize=auto;html=1;entryX=0.5;entryY=0;entryDx=0;entryDy=0;fontSize=19;exitX=0.5;exitY=1;exitDx=0;exitDy=0;" edge="1" parent="1" source="jVuyrgpBVxqC9CXEkM5F-2" target="jVuyrgpBVxqC9CXEkM5F-27">
          <mxGeometry relative="1" as="geometry" />
        </mxCell>
        <mxCell id="jVuyrgpBVxqC9CXEkM5F-2" value="&lt;span style=&quot;color: rgb(51 , 51 , 51) ; font-family: &amp;#34;pingfang sc&amp;#34; , &amp;#34;lantinghei sc&amp;#34; , &amp;#34;microsoft yahei&amp;#34; , &amp;#34;hiragino sans gb&amp;#34; , &amp;#34;microsoft sans serif&amp;#34; , &amp;#34;wenquanyi micro hei&amp;#34; , &amp;#34;helvetica&amp;#34; , sans-serif&quot;&gt;Handler 1&lt;/span&gt;" style="ellipse;whiteSpace=wrap;html=1;verticalAlign=top;fontSize=16;fillColor=#cce5ff;labelBackgroundColor=none;strokeColor=none;" vertex="1" parent="1">
          <mxGeometry x="220" y="465" width="230" height="170" as="geometry" />
        </mxCell>
        <mxCell id="jVuyrgpBVxqC9CXEkM5F-3" value="建立连接" style="rounded=0;orthogonalLoop=1;jettySize=auto;html=1;entryX=0.5;entryY=0;entryDx=0;entryDy=0;fontSize=16;exitX=0.5;exitY=1;exitDx=0;exitDy=0;" edge="1" parent="1" source="jVuyrgpBVxqC9CXEkM5F-5" target="jVuyrgpBVxqC9CXEkM5F-8">
          <mxGeometry relative="1" as="geometry" />
        </mxCell>
        <mxCell id="jVuyrgpBVxqC9CXEkM5F-4" value="处理请求" style="rounded=0;orthogonalLoop=1;jettySize=auto;html=1;entryX=0.5;entryY=0;entryDx=0;entryDy=0;fontSize=16;" edge="1" parent="1" target="jVuyrgpBVxqC9CXEkM5F-2">
          <mxGeometry relative="1" as="geometry">
            <mxPoint x="250" y="390" as="sourcePoint" />
          </mxGeometry>
        </mxCell>
        <mxCell id="jVuyrgpBVxqC9CXEkM5F-26" value="处理请求" style="edgeStyle=none;rounded=0;orthogonalLoop=1;jettySize=auto;html=1;entryX=0.5;entryY=0;entryDx=0;entryDy=0;fontSize=16;exitX=0.5;exitY=1;exitDx=0;exitDy=0;" edge="1" parent="1" source="jVuyrgpBVxqC9CXEkM5F-5" target="jVuyrgpBVxqC9CXEkM5F-22">
          <mxGeometry relative="1" as="geometry" />
        </mxCell>
        <mxCell id="jVuyrgpBVxqC9CXEkM5F-5" value="&lt;span style=&quot;font-size: 16px; font-family: &amp;quot;pingfang sc&amp;quot;, &amp;quot;lantinghei sc&amp;quot;, &amp;quot;microsoft yahei&amp;quot;, &amp;quot;hiragino sans gb&amp;quot;, &amp;quot;microsoft sans serif&amp;quot;, &amp;quot;wenquanyi micro hei&amp;quot;, helvetica, sans-serif;&quot;&gt;Reactor&lt;/span&gt;" style="ellipse;html=1;verticalAlign=top;fontSize=16;fillColor=#cce5ff;whiteSpace=wrap;labelBackgroundColor=none;strokeColor=none;" vertex="1" parent="1">
          <mxGeometry x="100" y="230" width="300" height="160" as="geometry" />
        </mxCell>
        <mxCell id="jVuyrgpBVxqC9CXEkM5F-6" value="select" style="rounded=0;whiteSpace=wrap;html=1;fontSize=16;fillColor=#ffcc99;strokeColor=none;" vertex="1" parent="1">
          <mxGeometry x="130" y="285" width="100" height="50" as="geometry" />
        </mxCell>
        <mxCell id="jVuyrgpBVxqC9CXEkM5F-7" value="dispatch" style="rounded=0;whiteSpace=wrap;html=1;fontSize=16;fillColor=#ffcc99;strokeColor=none;" vertex="1" parent="1">
          <mxGeometry x="260" y="285" width="100" height="50" as="geometry" />
        </mxCell>
        <mxCell id="jVuyrgpBVxqC9CXEkM5F-8" value="&lt;span style=&quot;color: rgb(51, 51, 51); font-family: &amp;quot;pingfang sc&amp;quot;, &amp;quot;lantinghei sc&amp;quot;, &amp;quot;microsoft yahei&amp;quot;, &amp;quot;hiragino sans gb&amp;quot;, &amp;quot;microsoft sans serif&amp;quot;, &amp;quot;wenquanyi micro hei&amp;quot;, helvetica, sans-serif;&quot;&gt;Acceptor&lt;/span&gt;" style="ellipse;whiteSpace=wrap;html=1;verticalAlign=top;fontSize=16;fillColor=#cce5ff;labelBackgroundColor=none;strokeColor=none;" vertex="1" parent="1">
          <mxGeometry x="-30" y="480" width="220" height="140" as="geometry" />
        </mxCell>
        <mxCell id="jVuyrgpBVxqC9CXEkM5F-9" value="accept" style="rounded=0;whiteSpace=wrap;html=1;fontSize=16;fillColor=#ffcc99;strokeColor=none;" vertex="1" parent="1">
          <mxGeometry x="25" y="525" width="100" height="50" as="geometry" />
        </mxCell>
        <mxCell id="jVuyrgpBVxqC9CXEkM5F-10" value="send" style="rounded=0;whiteSpace=wrap;html=1;fontSize=16;fillColor=#ffcc99;strokeColor=none;" vertex="1" parent="1">
          <mxGeometry x="285" y="570" width="100" height="50" as="geometry" />
        </mxCell>
        <mxCell id="jVuyrgpBVxqC9CXEkM5F-12" value="read" style="rounded=0;whiteSpace=wrap;html=1;fontSize=16;fillColor=#ffcc99;strokeColor=none;" vertex="1" parent="1">
          <mxGeometry x="285" y="505" width="100" height="50" as="geometry" />
        </mxCell>
        <mxCell id="jVuyrgpBVxqC9CXEkM5F-15" value="请求" style="edgeStyle=none;rounded=0;orthogonalLoop=1;jettySize=auto;html=1;fontSize=16;entryX=0;entryY=0.5;entryDx=0;entryDy=0;" edge="1" parent="1" source="jVuyrgpBVxqC9CXEkM5F-16" target="jVuyrgpBVxqC9CXEkM5F-5">
          <mxGeometry relative="1" as="geometry" />
        </mxCell>
        <mxCell id="jVuyrgpBVxqC9CXEkM5F-16" value="Client 1" style="ellipse;whiteSpace=wrap;html=1;fontSize=16;fillColor=#ffcccc;strokeColor=none;" vertex="1" parent="1">
          <mxGeometry x="-240" y="220" width="120" height="80" as="geometry" />
        </mxCell>
        <mxCell id="jVuyrgpBVxqC9CXEkM5F-21" value="请求" style="rounded=0;orthogonalLoop=1;jettySize=auto;html=1;entryX=0;entryY=0.5;entryDx=0;entryDy=0;fontSize=16;" edge="1" parent="1" source="jVuyrgpBVxqC9CXEkM5F-20" target="jVuyrgpBVxqC9CXEkM5F-5">
          <mxGeometry relative="1" as="geometry" />
        </mxCell>
        <mxCell id="jVuyrgpBVxqC9CXEkM5F-20" value="Client 1" style="ellipse;whiteSpace=wrap;html=1;fontSize=16;fillColor=#ffcccc;strokeColor=none;" vertex="1" parent="1">
          <mxGeometry x="-220" y="420" width="120" height="80" as="geometry" />
        </mxCell>
        <mxCell id="jVuyrgpBVxqC9CXEkM5F-22" value="&lt;span style=&quot;color: rgb(51 , 51 , 51) ; font-family: &amp;#34;pingfang sc&amp;#34; , &amp;#34;lantinghei sc&amp;#34; , &amp;#34;microsoft yahei&amp;#34; , &amp;#34;hiragino sans gb&amp;#34; , &amp;#34;microsoft sans serif&amp;#34; , &amp;#34;wenquanyi micro hei&amp;#34; , &amp;#34;helvetica&amp;#34; , sans-serif&quot;&gt;Handler 2&lt;/span&gt;" style="ellipse;whiteSpace=wrap;html=1;verticalAlign=top;fontSize=16;fillColor=#cce5ff;labelBackgroundColor=none;strokeColor=none;" vertex="1" parent="1">
          <mxGeometry x="480" y="465" width="230" height="170" as="geometry" />
        </mxCell>
        <mxCell id="jVuyrgpBVxqC9CXEkM5F-23" value="send" style="rounded=0;whiteSpace=wrap;html=1;fontSize=16;fillColor=#ffcc99;strokeColor=none;" vertex="1" parent="1">
          <mxGeometry x="545" y="570" width="100" height="50" as="geometry" />
        </mxCell>
        <mxCell id="jVuyrgpBVxqC9CXEkM5F-24" value="read" style="rounded=0;whiteSpace=wrap;html=1;fontSize=16;fillColor=#ffcc99;strokeColor=none;" vertex="1" parent="1">
          <mxGeometry x="545" y="505" width="100" height="50" as="geometry" />
        </mxCell>
        <mxCell id="jVuyrgpBVxqC9CXEkM5F-27" value="&lt;span style=&quot;color: rgb(51, 51, 51); font-family: &amp;quot;pingfang sc&amp;quot;, &amp;quot;lantinghei sc&amp;quot;, &amp;quot;microsoft yahei&amp;quot;, &amp;quot;hiragino sans gb&amp;quot;, &amp;quot;microsoft sans serif&amp;quot;, &amp;quot;wenquanyi micro hei&amp;quot;, helvetica, sans-serif;&quot;&gt;Processor&lt;/span&gt;" style="ellipse;whiteSpace=wrap;html=1;verticalAlign=top;fontSize=16;fillColor=#cce5ff;labelBackgroundColor=none;strokeColor=none;" vertex="1" parent="1">
          <mxGeometry x="45" y="765" width="220" height="140" as="geometry" />
        </mxCell>
        <mxCell id="jVuyrgpBVxqC9CXEkM5F-28" value="业务处理" style="rounded=0;whiteSpace=wrap;html=1;fontSize=16;fillColor=#ffcc99;strokeColor=none;" vertex="1" parent="1">
          <mxGeometry x="105" y="815" width="100" height="50" as="geometry" />
        </mxCell>
        <mxCell id="jVuyrgpBVxqC9CXEkM5F-30" value="子线程 &amp;nbsp;2" style="rounded=1;whiteSpace=wrap;html=1;labelBackgroundColor=none;fontSize=16;verticalAlign=top;fillColor=#f5f5f5;fontColor=#333333;strokeColor=none;" vertex="1" parent="1">
          <mxGeometry x="355" y="730" width="260" height="185" as="geometry" />
        </mxCell>
        <mxCell id="jVuyrgpBVxqC9CXEkM5F-31" value="&lt;span style=&quot;color: rgb(51, 51, 51); font-family: &amp;quot;pingfang sc&amp;quot;, &amp;quot;lantinghei sc&amp;quot;, &amp;quot;microsoft yahei&amp;quot;, &amp;quot;hiragino sans gb&amp;quot;, &amp;quot;microsoft sans serif&amp;quot;, &amp;quot;wenquanyi micro hei&amp;quot;, helvetica, sans-serif;&quot;&gt;Processor&lt;/span&gt;" style="ellipse;whiteSpace=wrap;html=1;verticalAlign=top;fontSize=16;fillColor=#cce5ff;labelBackgroundColor=none;strokeColor=none;" vertex="1" parent="1">
          <mxGeometry x="375" y="765" width="220" height="140" as="geometry" />
        </mxCell>
        <mxCell id="jVuyrgpBVxqC9CXEkM5F-32" value="业务处理" style="rounded=0;whiteSpace=wrap;html=1;fontSize=16;fillColor=#ffcc99;strokeColor=none;" vertex="1" parent="1">
          <mxGeometry x="435" y="815" width="100" height="50" as="geometry" />
        </mxCell>
        <mxCell id="jVuyrgpBVxqC9CXEkM5F-35" style="edgeStyle=none;rounded=0;orthogonalLoop=1;jettySize=auto;html=1;entryX=0.5;entryY=0;entryDx=0;entryDy=0;fontSize=19;exitX=0.5;exitY=1;exitDx=0;exitDy=0;" edge="1" parent="1" source="jVuyrgpBVxqC9CXEkM5F-22" target="jVuyrgpBVxqC9CXEkM5F-31">
          <mxGeometry relative="1" as="geometry" />
        </mxCell>
      </root>
    </mxGraphModel>
  </diagram>
</mxfile>
